<?xml version="1.0" encoding="UTF-8" standalone="no"?>
<svg
   xmlns:dc="http://purl.org/dc/elements/1.1/"
   xmlns:cc="http://creativecommons.org/ns#"
   xmlns:rdf="http://www.w3.org/1999/02/22-rdf-syntax-ns#"
   xmlns:svg="http://www.w3.org/2000/svg"
   xmlns="http://www.w3.org/2000/svg"
   width="512"
   height="512"
   viewBox="0 0 135.46666 135.46667"
   version="1.1"
   id="svg8">
  <defs
     id="defs2" />
  <metadata
     id="metadata5">
    <rdf:RDF>
      <cc:Work
         rdf:about="">
        <dc:format>image/svg+xml</dc:format>
        <dc:type
           rdf:resource="http://purl.org/dc/dcmitype/StillImage" />
        <dc:title></dc:title>
      </cc:Work>
    </rdf:RDF>
  </metadata>
  <g
     id="layer1">
    <g
       id="g888"
       transform="translate(-59.430931,-64.29335)">
      <path
         style="fill:#313348;fill-opacity:1;stroke-width:0.264583"
         d="m 74.884752,166.5693 c -0.671246,-0.33226 -1.295699,-0.92029 -1.653646,-1.55717 l -0.575127,-1.0233 v -31.56429 c 0,-31.024 0.0091,-31.583 0.52919,-32.657453 0.337264,-0.696695 0.902092,-1.302744 1.557378,-1.671036 0.984045,-0.553064 1.324505,-0.577874 7.930085,-0.577874 h 6.901897 l 0.395435,1.389063 c 0.217489,0.763984 1.058977,3.77031 1.869972,6.68073 0.810996,2.91042 1.651865,5.91719 1.868597,6.68173 l 0.394059,1.39006 33.903998,-0.0671 33.90399,-0.0671 2.02687,-7.27604 c 1.11478,-4.00183 2.10882,-7.603466 2.20899,-8.003648 l 0.18212,-0.727605 h 6.17354 c 5.9832,0 6.20106,0.01855 7.06626,0.601609 0.491,0.330885 1.16531,1.006089 1.49846,1.500454 l 0.60573,0.89884 -0.0703,32.03548 -0.0703,32.03549 -0.66146,0.88342 c -1.31019,1.74983 2.6316,1.63014 -53.67658,1.62991 -50.84815,-2.1e-4 -51.238763,-0.004 -52.309228,-0.53408 z m 98.155748,-7.46936 1.73878,-1.91823 0.003,-20.70364 0.003,-20.70365 -24.67239,-2.6e-4 c -13.56982,-1.5e-4 -34.94154,-0.0793 -47.49271,-0.17583 l -22.820452,-0.17557 v 20.57614 20.57614 l 2.016892,2.22157 2.016891,2.22156 h 43.734109 43.7341 z m -62.28603,-54.3097 c -0.33126,-0.87127 -0.3326,-1.4985 -0.005,-2.36005 0.22761,-0.59867 0.40696,-0.6782 1.52135,-0.67463 1.80703,0.006 1.96731,0.17735 1.87308,2.00487 l -0.0806,1.56296 -1.52287,0.0794 c -1.43094,0.0746 -1.53874,0.0376 -1.78593,-0.61254 z m 31.01067,0.34794 c -0.41164,-0.41164 -0.41164,-2.65753 0,-3.06917 0.41164,-0.41164 2.65753,-0.41164 3.06917,0 0.33217,0.33217 0.43342,2.24756 0.1569,2.96815 -0.19682,0.51291 -2.73471,0.59237 -3.22607,0.10102 z m -41.32491,-0.52692 c -2.805445,-1.0378 -2.101365,-4.976416 0.8896,-4.976416 0.87289,0 2.18561,1.139296 2.35923,2.047556 0.14738,0.77097 -0.34551,2.25814 -0.8522,2.57129 -0.67921,0.41978 -1.78321,0.58449 -2.39663,0.35757 z m 51.78918,-0.23511 c -0.74031,-0.43119 -1.31141,-1.77355 -1.12181,-2.6368 0.20571,-0.93657 1.5301,-2.104506 2.38643,-2.104506 1.6477,0 2.98146,1.611156 2.63597,3.184176 -0.32925,1.49907 -2.5074,2.36859 -3.90059,1.55713 z"
         id="path859" />
      <path
         style="fill:#d5b09f;stroke-width:0.264583"
         d="m 172.12825,159.89369 c 0.64876,-0.69122 1.21431,-1.25677 1.25677,-1.25677 0.19867,0 -0.0114,0.23755 -1.17957,1.33398 l -1.25677,1.17956 z m -89.840119,-0.52916 -0.504028,-0.59532 0.595313,0.50403 c 0.559447,0.47366 0.715761,0.6866 0.504028,0.6866 -0.05021,0 -0.318097,-0.26789 -0.595313,-0.59531 z M 103.2815,141.78145 c 0.32742,-0.0631 0.8632,-0.0631 1.19062,0 0.32742,0.0631 0.0595,0.11466 -0.59531,0.11466 -0.65484,0 -0.92273,-0.0516 -0.59531,-0.11466 z m 47.23176,-0.003 c 0.40218,-0.0608 0.99749,-0.0592 1.32292,0.004 0.32542,0.0628 -0.004,0.11256 -0.73125,0.11057 -0.7276,-0.002 -0.99385,-0.0534 -0.59167,-0.11418 z m -31.43264,-1.06199 c 1.87938,-0.0585 2.98108,-0.20336 3.129,-0.41147 0.16329,-0.22973 0.1976,-0.20818 0.12046,0.0757 -0.0876,0.32219 -0.6764,0.39962 -3.129,0.41147 l -3.02114,0.0146 z m 19.29398,-2.98162 c 0,-1.81901 0.0423,-2.56315 0.0939,-1.65365 0.0517,0.90951 0.0517,2.39779 0,3.3073 -0.0517,0.9095 -0.0939,0.16536 -0.0939,-1.65365 z m 17.64601,-0.41892 c 0.0127,-0.30823 0.0754,-0.37092 0.15985,-0.15986 0.0764,0.191 0.067,0.4192 -0.0209,0.50712 -0.0879,0.0879 -0.15045,-0.0684 -0.13897,-0.34726 z m -19.57916,-0.26459 c 0.0127,-0.30822 0.0754,-0.37092 0.15985,-0.15985 0.0764,0.191 0.067,0.4192 -0.0209,0.50712 -0.0879,0.0879 -0.15045,-0.0683 -0.13896,-0.34727 z m 20.90208,-1.05833 c 0.0127,-0.30823 0.0754,-0.37092 0.15985,-0.15985 0.0764,0.19099 0.067,0.41919 -0.0209,0.50712 -0.0879,0.0879 -0.15046,-0.0684 -0.13897,-0.34727 z m 0,-1.05833 c 0.0127,-0.30823 0.0754,-0.37092 0.15985,-0.15986 0.0764,0.191 0.067,0.4192 -0.0209,0.50712 -0.0879,0.0879 -0.15046,-0.0683 -0.13897,-0.34726 z m -38.25318,-0.11025 -2.91041,-0.15998 2.82865,-0.0523 c 1.65937,-0.0307 2.89625,0.0571 2.99218,0.21228 0.0899,0.14552 0.12673,0.24105 0.0818,0.21229 -0.045,-0.0288 -1.39145,-0.1243 -2.99218,-0.21229 z m 2.05052,-0.99193 c 3.3106,-0.042 8.72794,-0.042 12.03854,0 3.3106,0.042 0.60193,0.0763 -6.01927,0.0763 -6.6212,0 -9.32987,-0.0344 -6.01927,-0.0763 z m -13.59364,-2.11692 c -0.32911,-0.41965 -0.31975,-0.429 0.0999,-0.0999 0.25466,0.19972 0.46302,0.40808 0.46302,0.46302 0,0.21777 -0.21727,0.0776 -0.56292,-0.36312 z m 42.36708,-2.4557 c 0,-0.14095 0.17859,-0.25628 0.39687,-0.25628 0.21828,0 0.39688,0.0468 0.39688,0.10398 0,0.0572 -0.1786,0.17252 -0.39688,0.25628 -0.21828,0.0838 -0.39687,0.037 -0.39687,-0.10398 z m 1.80247,-0.17244 c 0.191,-0.0764 0.4192,-0.067 0.50712,0.0209 0.0879,0.0879 -0.0684,0.15045 -0.34726,0.13896 -0.30823,-0.0127 -0.37092,-0.0754 -0.15986,-0.15985 z M 98.402892,115.57646 c 2.155338,-0.0445 5.608148,-0.0444 7.672918,2.3e-4 2.06477,0.0447 0.30131,0.0811 -3.91879,0.081 -4.220105,-1.3e-4 -5.909461,-0.0367 -3.754128,-0.0812 z M 89.804285,97.072854 c 0.190996,-0.07643 0.4192,-0.06703 0.507119,0.02089 0.08792,0.08792 -0.06835,0.150453 -0.347266,0.138965 -0.308225,-0.01269 -0.370919,-0.07539 -0.159853,-0.159853 z m 1.972874,-0.0026 c 0.257431,-0.06708 0.614619,-0.06267 0.79375,0.0098 0.179132,0.07248 -0.03149,0.127369 -0.468056,0.121977 -0.436562,-0.0054 -0.583125,-0.06469 -0.325694,-0.131774 z m 2.38125,0 c 0.257431,-0.06708 0.614619,-0.06267 0.79375,0.0098 0.179132,0.07248 -0.03149,0.127369 -0.468056,0.121977 -0.436563,-0.0054 -0.583125,-0.06469 -0.325694,-0.131774 z m 2.38125,0 c 0.257431,-0.06708 0.614619,-0.06267 0.79375,0.0098 0.179131,0.07247 -0.03149,0.127362 -0.468056,0.12197 -0.436563,-0.0054 -0.583126,-0.06469 -0.325694,-0.131774 z m 2.38125,0 c 0.257431,-0.06708 0.614619,-0.06267 0.79375,0.0098 0.179131,0.07247 -0.03149,0.127362 -0.468056,0.12197 -0.436563,-0.0054 -0.583126,-0.06469 -0.325694,-0.131774 z m 2.381251,0 c 0.25743,-0.06708 0.61462,-0.06267 0.79375,0.0098 0.17913,0.07247 -0.0315,0.127362 -0.46806,0.12197 -0.43656,-0.0054 -0.58312,-0.06469 -0.32569,-0.131774 z m 2.38125,0 c 0.25743,-0.06708 0.61462,-0.06267 0.79375,0.0098 0.17913,0.07247 -0.0315,0.127362 -0.46806,0.12197 -0.43656,-0.0054 -0.58312,-0.06469 -0.32569,-0.131774 z m 2.38125,0 c 0.25743,-0.06708 0.61462,-0.06267 0.79375,0.0098 0.17913,0.07247 -0.0315,0.127362 -0.46806,0.12197 -0.43656,-0.0054 -0.58312,-0.06469 -0.32569,-0.131774 z m 2.38125,0 c 0.25743,-0.06708 0.61462,-0.06267 0.79375,0.0098 0.17913,0.07247 -0.0315,0.127362 -0.46806,0.12197 -0.43656,-0.0054 -0.58312,-0.06469 -0.32569,-0.131774 z m 2.38125,0 c 0.25743,-0.06708 0.61462,-0.06267 0.79375,0.0098 0.17913,0.07247 -0.0315,0.127362 -0.46806,0.12197 -0.43656,-0.0054 -0.58312,-0.06469 -0.32569,-0.131774 z m 2.38125,0 c 0.25743,-0.06708 0.61462,-0.06267 0.79375,0.0098 0.17913,0.07247 -0.0315,0.127362 -0.46806,0.12197 -0.43656,-0.0054 -0.58312,-0.06469 -0.32569,-0.131774 z m 2.38125,0 c 0.25743,-0.06708 0.61462,-0.06267 0.79375,0.0098 0.17913,0.07247 -0.0315,0.127362 -0.46806,0.12197 -0.43656,-0.0054 -0.58312,-0.06469 -0.32569,-0.131774 z m 2.38125,0 c 0.25743,-0.06708 0.61462,-0.06267 0.79375,0.0098 0.17913,0.07247 -0.0315,0.127362 -0.46806,0.12197 -0.43656,-0.0054 -0.58312,-0.06469 -0.32569,-0.131774 z m 2.38125,0 c 0.25743,-0.06708 0.61462,-0.06267 0.79375,0.0098 0.17913,0.07247 -0.0315,0.127362 -0.46806,0.12197 -0.43656,-0.0054 -0.58312,-0.06469 -0.32569,-0.131774 z m 2.38125,0 c 0.25743,-0.06708 0.61462,-0.06267 0.79375,0.0098 0.17913,0.07247 -0.0315,0.127362 -0.46806,0.12197 -0.43656,-0.0054 -0.58312,-0.06469 -0.32569,-0.131774 z m 2.38125,0 c 0.25743,-0.06708 0.61462,-0.06267 0.79375,0.0098 0.17913,0.07247 -0.0315,0.127362 -0.46806,0.12197 -0.43656,-0.0054 -0.58312,-0.06469 -0.32569,-0.131774 z m 2.38125,0 c 0.25743,-0.06708 0.61462,-0.06267 0.79375,0.0098 0.17913,0.07247 -0.0315,0.127362 -0.46806,0.12197 -0.43656,-0.0054 -0.58312,-0.06469 -0.32569,-0.131774 z m 2.38125,0 c 0.25743,-0.06708 0.61462,-0.06267 0.79375,0.0098 0.17913,0.07247 -0.0315,0.127362 -0.46806,0.12197 -0.43656,-0.0054 -0.58312,-0.06469 -0.32569,-0.131774 z m 2.38125,0 c 0.25743,-0.06708 0.61462,-0.06267 0.79375,0.0098 0.17913,0.07247 -0.0315,0.127362 -0.46806,0.12197 -0.43656,-0.0054 -0.58312,-0.06469 -0.32569,-0.131774 z m 2.24392,0.0081 c 0.1819,-0.0734 0.47956,-0.0734 0.66146,0 0.1819,0.0734 0.0331,0.133452 -0.33073,0.133452 -0.3638,0 -0.51263,-0.06005 -0.33073,-0.133452 z m 2.38125,0 c 0.1819,-0.0734 0.47956,-0.0734 0.66146,0 0.1819,0.0734 0.0331,0.133452 -0.33073,0.133452 -0.3638,0 -0.51263,-0.06005 -0.33073,-0.133452 z m 2.38125,0 c 0.1819,-0.0734 0.47956,-0.0734 0.66146,0 0.1819,0.0734 0.0331,0.133452 -0.33073,0.133452 -0.3638,0 -0.51263,-0.06005 -0.33073,-0.133452 z m 2.38125,0 c 0.1819,-0.0734 0.47956,-0.0734 0.66146,0 0.1819,0.0734 0.0331,0.133452 -0.33073,0.133452 -0.3638,0 -0.51263,-0.06005 -0.33073,-0.133452 z m 2.38125,0 c 0.1819,-0.0734 0.47956,-0.0734 0.66146,0 0.1819,0.0734 0.0331,0.133452 -0.33073,0.133452 -0.3638,0 -0.51263,-0.06005 -0.33073,-0.133452 z m 2.39779,-0.0055 c 0.19099,-0.07643 0.4192,-0.06703 0.50712,0.02089 0.0879,0.08792 -0.0684,0.150453 -0.34727,0.138965 -0.30823,-0.01269 -0.37092,-0.07539 -0.15985,-0.159853 z"
         id="path857" />
      <path
         style="fill:#f75d46;fill-opacity:1;stroke:#f75d46;stroke-width:0.794279;stroke-miterlimit:4;stroke-dasharray:none;stroke-opacity:1"
         d="m 82.076173,158.87957 -2.011861,-2.13862 V 136.2577 115.77444 l 44.251558,0.001 c 24.33836,6.7e-4 45.59102,0.0784 47.22813,0.17272 l 2.97656,0.17151 v 20.67032 20.67032 l -1.79258,1.77884 -1.79258,1.77884 H 127.51172 84.088034 l -2.011861,-2.13862 z m 72.009067,-15.20106 c 3.70937,-1.40726 5.61865,-4.32606 5.61865,-8.58948 0,-3.80447 -1.64613,-6.38615 -4.91043,-7.70116 l -1.57186,-0.63322 -24.34167,-0.078 c -15.85772,-0.0508 -25.0794,0.0184 -26.45833,0.19853 -5.65615,0.73888 -8.28423,4.02035 -7.52326,9.39373 0.46033,3.2505 2.18951,5.55488 5.24255,6.98642 l 1.48696,0.69722 16.40417,0.13229 c 27.94843,0.22539 34.58522,0.15059 36.05322,-0.40635 z"
         id="path853" />
      <path
         style="fill:#333333;stroke:#333333;stroke-width:0.687917;stroke-miterlimit:4;stroke-dasharray:none;stroke-opacity:1"
         d="m 118.03202,144.08484 -16.40417,-0.13229 -1.48696,-0.69722 c -3.053041,-1.43154 -4.782224,-3.73592 -5.242553,-6.98642 -0.760963,-5.37338 1.867109,-8.65485 7.523263,-9.39373 1.37893,-0.18014 10.60061,-0.24933 26.45833,-0.19853 l 24.34167,0.078 1.57186,0.63322 c 3.2643,1.31501 4.91043,3.89669 4.91043,7.70116 0,4.26342 -1.90928,7.18222 -5.61865,8.58948 -1.468,0.55694 -8.10479,0.63174 -36.05322,0.40635 z m -12.90564,-2.63315 c -0.17859,-0.68292 0.3945,-0.86443 0.74539,-0.23608 0.26086,0.46712 0.33931,0.45207 1.50824,-0.28924 0.67819,-0.4301 1.56026,-1.27641 1.96017,-1.88071 0.66089,-0.99867 0.68618,-1.12161 0.2777,-1.3502 -0.58152,-0.32544 -0.60416,-1.06173 -0.0258,-0.8398 0.91491,0.35108 1.14465,-1.10913 0.51049,-3.24458 -0.54407,-1.83206 -1.01846,-2.44058 -1.55531,-1.99504 -0.61215,0.50804 -1.10529,0.0964 -0.57995,-0.48412 0.34758,-0.38406 0.35943,-0.51588 0.0681,-0.75762 -0.85399,-0.70875 -2.79328,-1.35947 -4.06771,-1.3649 -1.20175,-0.005 -1.34895,0.0529 -1.23546,0.48687 0.0749,0.28635 -0.0354,0.55569 -0.26328,0.64315 -0.24976,0.0958 -0.44403,-0.0481 -0.53511,-0.39633 -0.14158,-0.54139 -0.15429,-0.54026 -1.28285,0.11382 -0.62691,0.36334 -1.526799,1.22641 -1.999741,1.91793 -0.957829,1.4005 -1.045295,1.72667 -0.463021,1.72667 0.218281,0 0.396875,0.17859 0.396875,0.39687 0,0.21828 -0.225219,0.39688 -0.500483,0.39688 -1.158494,0 -0.749829,3.40796 0.61546,5.13248 0.328674,0.41516 0.467926,0.44396 0.802794,0.16605 0.412728,-0.34254 0.462923,-0.27817 0.510466,0.65459 0.0411,0.80653 2.06861,1.71979 3.81806,1.71979 1.28803,0 1.41659,-0.0513 1.29494,-0.51648 z m 47.25365,0.0172 c -0.16097,-0.61554 0.38743,-1.01612 0.60716,-0.4435 0.29477,0.76814 1.18795,0.42065 2.63292,-1.02431 1.46972,-1.46973 1.74407,-2.09213 1.04107,-2.36189 -0.21828,-0.0838 -0.39687,-0.3369 -0.39687,-0.56252 0,-0.30545 0.16893,-0.36782 0.66146,-0.2442 0.6359,0.1596 0.66146,0.11754 0.66146,-1.08874 0,-1.49842 -0.40548,-2.96418 -1.06003,-3.83194 -0.39465,-0.5232 -0.54673,-0.57574 -0.87584,-0.3026 -0.50784,0.42147 -0.88984,-0.0857 -0.4572,-0.60696 0.23282,-0.28053 0.13614,-0.46965 -0.44024,-0.86121 -1.23746,-0.84066 -2.15818,-1.1374 -3.52914,-1.1374 -1.10939,0 -1.31047,0.0768 -1.31047,0.50086 0,0.27547 -0.1786,0.56939 -0.39688,0.65315 -0.26995,0.10359 -0.39687,-0.0143 -0.39687,-0.36856 0,-0.65915 -0.12058,-0.65269 -1.29169,0.0692 -0.97215,0.59929 -2.01914,1.6819 -2.60154,2.69006 -0.42952,0.74352 -0.41703,0.95316 0.0568,0.95316 0.21828,0 0.39688,0.17859 0.39688,0.39687 0,0.22049 -0.23519,0.39688 -0.52917,0.39688 -1.10325,0 -0.41624,4.18195 0.86055,5.23837 0.26516,0.21938 0.47465,0.24747 0.57958,0.0777 0.0904,-0.14623 0.34213,-0.19764 0.55947,-0.11424 0.31124,0.11943 0.32831,0.23217 0.0804,0.53089 -0.24591,0.2963 -0.23278,0.46122 0.06,0.75401 0.60786,0.60785 2.3895,1.14752 3.8545,1.16754 1.21125,0.0166 1.34964,-0.0374 1.23372,-0.48066 z m -13.04905,-3.73402 v -3.96875 h -12.17084 -12.17083 v 3.96875 3.96875 h 12.17083 12.17084 z m -2.47439,1.78594 c -0.40502,-3.37194 -0.15344,-4.96094 0.78545,-4.96094 0.62938,0 0.6306,0.006 0.6306,3.175 0,3.16032 -0.003,3.175 -0.6246,3.175 -0.55592,0 -0.64296,-0.15276 -0.79145,-1.38906 z m -20.54436,-1.78594 v -2.91042 h 2.74981 c 2.2634,0 2.77823,0.074 2.91042,0.41852 0.0883,0.23018 0.1606,1.53987 0.1606,2.91041 v 2.49191 h -2.91042 -2.91041 z m -24.36607,-32.21305 -2.266096,-8.135934 38.230116,-0.06704 c 21.02656,-0.03687 38.26163,-0.03553 38.30014,0.003 0.0385,0.03851 -0.32831,1.497429 -0.81516,3.242044 -0.48686,1.74461 -1.50521,5.40444 -2.26302,8.13295 l -1.37783,4.96094 H 127.98328 94.212256 Z m 22.19648,-0.38364 c 0.38963,-0.38963 0.41675,-2.17768 0.0436,-2.8749 -0.21754,-0.40648 -0.56046,-0.51177 -1.66687,-0.51177 -0.76614,0 -1.53586,0.14288 -1.71048,0.3175 -0.33217,0.33217 -0.43342,2.24756 -0.1569,2.96815 0.19743,0.51452 2.99615,0.59551 3.49065,0.10102 z m 30.87688,-1.53459 v -1.71979 l -1.56296,-0.0806 c -1.07129,-0.0552 -1.63183,0.028 -1.78189,0.26459 -0.26804,0.42261 -0.29914,2.96299 -0.0395,3.22268 0.10317,0.10317 0.90684,0.15278 1.78594,0.11024 l 1.59836,-0.0773 z m -42.04229,0.42334 c 1.00001,-1.00001 1.13702,-1.84254 0.49997,-3.07446 -1.21492,-2.349387 -4.901594,-1.412498 -4.886171,1.24171 0.01442,2.4807 2.640821,3.57813 4.386201,1.83275 z m 51.96694,0.45898 c 2.32845,-1.37545 1.37864,-4.851066 -1.32569,-4.851066 -0.86195,0 -1.26589,0.166841 -1.87244,0.773396 -1.11835,1.11835 -1.07298,2.41953 0.12619,3.61869 1.01491,1.01492 1.90554,1.14799 3.07194,0.45898 z"
         id="path851" />
    </g>
  </g>
</svg>
